<svg xmlns="http://www.w3.org/2000/svg" xmlns:xlink="http://www.w3.org/1999/xlink" width="517pt" height="256" viewBox="0 0 517.3 191.8"><g id="graph0" class="graph" transform="scale(1 1) rotate(0) translate(14.4 177.4)"><polygon fill="#fff" stroke="transparent" points="-14.4 14.4 -14.4 -177.4 502.9 -177.4 502.9 14.4 -14.4 14.4"/><g id="node1" class="node"><title>mulle__array</title><polygon fill="#00f" stroke="transparent" points="11.5 -135 11.5 -156 86.5 -156 86.5 -135 11.5 -135"/><polygon fill="none" stroke="#000" points="11.5 -135 11.5 -156 86.5 -156 86.5 -135 11.5 -135"/><text x="15.5" y="-141.8" fill="#fff" font-family="Times,serif" font-size="14" text-anchor="start">mulle_array</text><polygon fill="#000" stroke="transparent" points="11.5 -112 11.5 -133 64.5 -133 64.5 -112 11.5 -112"/><polygon fill="none" stroke="#000" points="11.5 -112 11.5 -133 64.5 -133 64.5 -112 11.5 -112"/><text x="22.5" y="-118.8" fill="#fff" font-family="Times,serif" font-size="14" text-anchor="start">count</text><polygon fill="none" stroke="#000" points="66.5 -112 66.5 -133 86.5 -133 86.5 -112 66.5 -112"/><text x="73" y="-118.8" font-family="Times,serif" font-size="14" text-anchor="start">5</text><polygon fill="#000" stroke="transparent" points="11.5 -89 11.5 -110 64.5 -110 64.5 -89 11.5 -89"/><polygon fill="none" stroke="#000" points="11.5 -89 11.5 -110 64.5 -110 64.5 -89 11.5 -89"/><text x="27" y="-95.8" fill="#fff" font-family="Times,serif" font-size="14" text-anchor="start">size</text><polygon fill="none" stroke="#000" points="66.5 -89 66.5 -110 86.5 -110 86.5 -89 66.5 -89"/><text x="73" y="-95.8" font-family="Times,serif" font-size="14" text-anchor="start">8</text><polygon fill="#000" stroke="transparent" points="11.5 -66 11.5 -87 64.5 -87 64.5 -66 11.5 -66"/><polygon fill="none" stroke="#000" points="11.5 -66 11.5 -87 64.5 -87 64.5 -66 11.5 -66"/><text x="18" y="-72.8" fill="#fff" font-family="Times,serif" font-size="14" text-anchor="start">storage</text><polygon fill="none" stroke="#000" points="66.5 -66 66.5 -87 86.5 -87 86.5 -66 66.5 -66"/><polygon fill="none" stroke="#000" points="8 -63 8 -159 89 -159 89 -63 8 -63"/></g><g id="node2" class="node"><title>k_a</title><polygon fill="#ff0" stroke="#000" points="49.5 -.5 49.5 -36.5 103.5 -36.5 103.5 -.5 49.5 -.5"/><text x="76.5" y="-14.8" font-family="Times,serif" font-size="14" text-anchor="middle">0</text></g><g id="edge1" class="edge"><title>mulle__array:c-&gt;k_a</title><path fill="none" stroke="#000" d="M76.5,-57.53C76.5,-54.12 76.5,-50.46 76.5,-46.81"/><ellipse cx="76.5" cy="-61.84" fill="#000" stroke="#000" rx="4" ry="4"/><polygon fill="#000" stroke="#000" points="76.5 -36.76 81 -46.76 76.5 -41.76 76.5 -46.76 76.5 -46.76 76.5 -46.76 76.5 -41.76 72 -46.76 76.5 -36.76 76.5 -36.76"/></g><g id="node3" class="node"><title>k_b</title><polygon fill="#ff0" stroke="#000" points="104.5 -.5 104.5 -36.5 158.5 -36.5 158.5 -.5 104.5 -.5"/><text x="131.5" y="-14.8" font-family="Times,serif" font-size="14" text-anchor="middle">1</text></g><g id="node4" class="node"><title>k_c</title><polygon fill="#ff0" stroke="#000" points="159.5 -.5 159.5 -36.5 213.5 -36.5 213.5 -.5 159.5 -.5"/><text x="186.5" y="-14.8" font-family="Times,serif" font-size="14" text-anchor="middle">2</text></g><g id="node5" class="node"><title>k_d</title><polygon fill="#ff0" stroke="#000" points="214.5 -.5 214.5 -36.5 268.5 -36.5 268.5 -.5 214.5 -.5"/><text x="241.5" y="-14.8" font-family="Times,serif" font-size="14" text-anchor="middle">3</text></g><g id="node6" class="node"><title>k_e</title><polygon fill="#7fff00" stroke="#000" points="269.5 -.5 269.5 -36.5 323.5 -36.5 323.5 -.5 269.5 -.5"/><text x="296.5" y="-14.8" font-family="Times,serif" font-size="14" text-anchor="middle">4</text></g><g id="node7" class="node"><title>k_f</title><polygon fill="#fff" stroke="#000" points="324.5 -.5 324.5 -36.5 378.5 -36.5 378.5 -.5 324.5 -.5"/><text x="351.5" y="-14.8" font-family="Times,serif" font-size="14" text-anchor="middle">5</text></g><g id="node8" class="node"><title>k_g</title><polygon fill="#fff" stroke="#000" points="379.5 -.5 379.5 -36.5 433.5 -36.5 433.5 -.5 379.5 -.5"/><text x="406.5" y="-14.8" font-family="Times,serif" font-size="14" text-anchor="middle">6</text></g><g id="node9" class="node"><title>k_h</title><polygon fill="#fff" stroke="#000" points="434.5 -.5 434.5 -36.5 488.5 -36.5 488.5 -.5 434.5 -.5"/><text x="461.5" y="-14.8" font-family="Times,serif" font-size="14" text-anchor="middle">7</text></g></g></svg>