<svg xmlns="http://www.w3.org/2000/svg" xmlns:xlink="http://www.w3.org/1999/xlink" width="563pt" height="215pt" viewBox="0 0 562.8 214.8"><g id="graph0" class="graph" transform="scale(1 1) rotate(0) translate(14.4 200.4)"><polygon fill="#fff" stroke="transparent" points="-14.4 14.4 -14.4 -200.4 548.4 -200.4 548.4 14.4 -14.4 14.4"/><g id="node1" class="node"><title>mulle_pointerpairarray</title><polygon fill="#00f" stroke="transparent" points="11 -157.5 11 -178.5 145 -178.5 145 -157.5 11 -157.5"/><polygon fill="none" stroke="#000" points="11 -157.5 11 -178.5 145 -178.5 145 -157.5 11 -157.5"/><text x="15" y="-164.3" fill="#fff" font-family="Times,serif" font-size="14" text-anchor="start">mulle_pointerpairarray</text><polygon fill="#000" stroke="transparent" points="11 -134.5 11 -155.5 97 -155.5 97 -134.5 11 -134.5"/><polygon fill="none" stroke="#000" points="11 -134.5 11 -155.5 97 -155.5 97 -134.5 11 -134.5"/><text x="30" y="-141.3" fill="#fff" font-family="Times,serif" font-size="14" text-anchor="start">allocator</text><polygon fill="none" stroke="#000" points="99 -134.5 99 -155.5 145 -155.5 145 -134.5 99 -134.5"/><polygon fill="#000" stroke="transparent" points="11 -111.5 11 -132.5 97 -132.5 97 -111.5 11 -111.5"/><polygon fill="none" stroke="#000" points="11 -111.5 11 -132.5 97 -132.5 97 -111.5 11 -111.5"/><text x="38.5" y="-118.3" fill="#fff" font-family="Times,serif" font-size="14" text-anchor="start">count</text><polygon fill="none" stroke="#000" points="99 -111.5 99 -132.5 145 -132.5 145 -111.5 99 -111.5"/><text x="118.5" y="-118.3" font-family="Times,serif" font-size="14" text-anchor="start">5</text><polygon fill="#000" stroke="transparent" points="11 -88.5 11 -109.5 97 -109.5 97 -88.5 11 -88.5"/><polygon fill="none" stroke="#000" points="11 -88.5 11 -109.5 97 -109.5 97 -88.5 11 -88.5"/><text x="43" y="-95.3" fill="#fff" font-family="Times,serif" font-size="14" text-anchor="start">size</text><polygon fill="none" stroke="#000" points="99 -88.5 99 -109.5 145 -109.5 145 -88.5 99 -88.5"/><text x="118.5" y="-95.3" font-family="Times,serif" font-size="14" text-anchor="start">8</text><polygon fill="#000" stroke="transparent" points="11 -65.5 11 -86.5 97 -86.5 97 -65.5 11 -65.5"/><polygon fill="none" stroke="#000" points="11 -65.5 11 -86.5 97 -86.5 97 -65.5 11 -65.5"/><text x="34" y="-72.3" fill="#fff" font-family="Times,serif" font-size="14" text-anchor="start">storage</text><polygon fill="none" stroke="#000" points="99 -65.5 99 -86.5 145 -86.5 145 -65.5 99 -65.5"/><polygon fill="none" stroke="#000" points="8 -63 8 -182 148 -182 148 -63 8 -63"/></g><g id="node2" class="node"><title>mulle_allocator</title><polygon fill="#00f" stroke="transparent" points="168 -146.5 168 -167.5 260 -167.5 260 -146.5 168 -146.5"/><polygon fill="none" stroke="#000" points="168 -146.5 168 -167.5 260 -167.5 260 -146.5 168 -146.5"/><text x="171" y="-153.3" fill="#fff" font-family="Times,serif" font-size="14" text-anchor="start">mulle_allocator</text><polygon fill="none" stroke="#000" points="168 -123.5 168 -144.5 260 -144.5 260 -123.5 168 -123.5"/><text x="197.5" y="-130.3" font-family="Times,serif" font-size="14" text-anchor="start">calloc</text><polygon fill="none" stroke="#000" points="168 -100.5 168 -121.5 260 -121.5 260 -100.5 168 -100.5"/><text x="195.5" y="-107.3" font-family="Times,serif" font-size="14" text-anchor="start">realloc</text><polygon fill="none" stroke="#000" points="168 -77.5 168 -98.5 260 -98.5 260 -77.5 168 -77.5"/><text x="203" y="-84.3" font-family="Times,serif" font-size="14" text-anchor="start">free</text><polygon fill="none" stroke="#000" points="165 -74.5 165 -170.5 263 -170.5 263 -74.5 165 -74.5"/></g><g id="edge3" class="edge"><title>mulle_pointerpairarray:c-&gt;mulle_allocator:w</title><path fill="none" stroke="#000" d="M145.07,-153.96C148.85,-155.05 152.88,-156.01 156.94,-156.65"/><polygon fill="#000" stroke="#000" points="156.74 -160.14 167 -157.5 157.33 -153.17 156.74 -160.14"/></g><g id="node3" class="node"><title>k_a</title><polygon fill="#ff0" stroke="#000" points="95 -.5 95 -36.5 149 -36.5 149 -.5 95 -.5"/><text x="122" y="-23.8" font-family="Times,serif" font-size="14" text-anchor="middle">0</text><polyline fill="none" stroke="#000" points="95 -18.5 149 -18.5"/><text x="122" y="-5.8" font-family="Times,serif" font-size="14" text-anchor="middle">a</text></g><g id="edge2" class="edge"><title>mulle_pointerpairarray:c-&gt;k_a</title><path fill="none" stroke="#000" d="M122,-57.19C122,-53.91 122,-50.4 122,-46.89"/><ellipse cx="122" cy="-61.42" fill="#000" stroke="#000" rx="4" ry="4"/><polygon fill="#000" stroke="#000" points="122 -36.6 126.5 -46.6 122 -41.6 122 -46.6 122 -46.6 122 -46.6 122 -41.6 117.5 -46.6 122 -36.6 122 -36.6"/></g><g id="node4" class="node"><title>k_b</title><polygon fill="#ff0" stroke="#000" points="150 -.5 150 -36.5 204 -36.5 204 -.5 150 -.5"/><text x="177" y="-23.8" font-family="Times,serif" font-size="14" text-anchor="middle">1</text><polyline fill="none" stroke="#000" points="150 -18.5 204 -18.5"/><text x="177" y="-5.8" font-family="Times,serif" font-size="14" text-anchor="middle">b</text></g><g id="node5" class="node"><title>k_c</title><polygon fill="#ff0" stroke="#000" points="205 -.5 205 -36.5 259 -36.5 259 -.5 205 -.5"/><text x="232" y="-23.8" font-family="Times,serif" font-size="14" text-anchor="middle">2</text><polyline fill="none" stroke="#000" points="205 -18.5 259 -18.5"/><text x="232" y="-5.8" font-family="Times,serif" font-size="14" text-anchor="middle">c</text></g><g id="node6" class="node"><title>k_d</title><polygon fill="#ff0" stroke="#000" points="260 -.5 260 -36.5 314 -36.5 314 -.5 260 -.5"/><text x="287" y="-23.8" font-family="Times,serif" font-size="14" text-anchor="middle">3</text><polyline fill="none" stroke="#000" points="260 -18.5 314 -18.5"/><text x="287" y="-5.8" font-family="Times,serif" font-size="14" text-anchor="middle">d</text></g><g id="node7" class="node"><title>k_e</title><polygon fill="#7fff00" stroke="#000" points="315 -.5 315 -36.5 369 -36.5 369 -.5 315 -.5"/><text x="342" y="-23.8" font-family="Times,serif" font-size="14" text-anchor="middle">4</text><polyline fill="none" stroke="#000" points="315 -18.5 369 -18.5"/><text x="342" y="-5.8" font-family="Times,serif" font-size="14" text-anchor="middle">e</text></g><g id="node8" class="node"><title>k_f</title><polygon fill="#fff" stroke="#000" points="370 -.5 370 -36.5 424 -36.5 424 -.5 370 -.5"/><text x="397" y="-23.8" font-family="Times,serif" font-size="14" text-anchor="middle">5</text><polyline fill="none" stroke="#000" points="370 -18.5 424 -18.5"/><text x="397" y="-5.8" font-family="Times,serif" font-size="14" text-anchor="middle">f</text></g><g id="node9" class="node"><title>k_g</title><polygon fill="#fff" stroke="#000" points="425 -.5 425 -36.5 479 -36.5 479 -.5 425 -.5"/><text x="452" y="-23.8" font-family="Times,serif" font-size="14" text-anchor="middle">6</text><polyline fill="none" stroke="#000" points="425 -18.5 479 -18.5"/><text x="452" y="-5.8" font-family="Times,serif" font-size="14" text-anchor="middle">g</text></g><g id="node10" class="node"><title>k_h</title><polygon fill="#fff" stroke="#000" points="480 -.5 480 -36.5 534 -36.5 534 -.5 480 -.5"/><text x="507" y="-23.8" font-family="Times,serif" font-size="14" text-anchor="middle">7</text><polyline fill="none" stroke="#000" points="480 -18.5 534 -18.5"/><text x="507" y="-5.8" font-family="Times,serif" font-size="14" text-anchor="middle">h</text></g></g></svg>