<svg xmlns="http://www.w3.org/2000/svg" xmlns:xlink="http://www.w3.org/1999/xlink" width="551pt" height="256" viewBox="0 0 550.8 191.8"><g id="graph0" class="graph" transform="scale(1 1) rotate(0) translate(14.4 177.4)"><polygon fill="#fff" stroke="transparent" points="-14.4 14.4 -14.4 -177.4 536.4 -177.4 536.4 14.4 -14.4 14.4"/><g id="node1" class="node"><title>mulle__pointerarray</title><polygon fill="#00f" stroke="transparent" points="11 -135 11 -156 131 -156 131 -135 11 -135"/><polygon fill="none" stroke="#000" points="11 -135 11 -156 131 -156 131 -135 11 -135"/><text x="15" y="-141.8" fill="#fff" font-family="Times,serif" font-size="14" text-anchor="start">mulle__pointerarray</text><polygon fill="#000" stroke="transparent" points="11 -112 11 -133 86 -133 86 -112 11 -112"/><polygon fill="none" stroke="#000" points="11 -112 11 -133 86 -133 86 -112 11 -112"/><text x="36" y="-118.8" fill="#fff" font-family="Times,serif" font-size="14" text-anchor="start">used</text><polygon fill="none" stroke="#000" points="88 -112 88 -133 131 -133 131 -112 88 -112"/><text x="106" y="-118.8" font-family="Times,serif" font-size="14" text-anchor="start">5</text><polygon fill="#000" stroke="transparent" points="11 -89 11 -110 86 -110 86 -89 11 -89"/><polygon fill="none" stroke="#000" points="11 -89 11 -110 86 -110 86 -89 11 -89"/><text x="37.5" y="-95.8" fill="#fff" font-family="Times,serif" font-size="14" text-anchor="start">size</text><polygon fill="none" stroke="#000" points="88 -89 88 -110 131 -110 131 -89 88 -89"/><text x="106" y="-95.8" font-family="Times,serif" font-size="14" text-anchor="start">8</text><polygon fill="#000" stroke="transparent" points="11 -66 11 -87 86 -87 86 -66 11 -66"/><polygon fill="none" stroke="#000" points="11 -66 11 -87 86 -87 86 -66 11 -66"/><text x="28.5" y="-72.8" fill="#fff" font-family="Times,serif" font-size="14" text-anchor="start">storage</text><polygon fill="none" stroke="#000" points="88 -66 88 -87 131 -87 131 -66 88 -66"/><polygon fill="none" stroke="#000" points="8 -63 8 -159 134 -159 134 -63 8 -63"/></g><g id="node2" class="node"><title>a</title><polygon fill="#ff0" stroke="#000" points="83 -.5 83 -36.5 137 -36.5 137 -.5 83 -.5"/><text x="110" y="-14.8" font-family="Times,serif" font-size="14" text-anchor="middle">0</text></g><g id="edge1" class="edge"><title>mulle__pointerarray:c-&gt;a</title><path fill="none" stroke="#000" d="M110,-57.53C110,-54.12 110,-50.46 110,-46.81"/><ellipse cx="110" cy="-61.84" fill="#000" stroke="#000" rx="4" ry="4"/><polygon fill="#000" stroke="#000" points="110 -36.76 114.5 -46.76 110 -41.76 110 -46.76 110 -46.76 110 -46.76 110 -41.76 105.5 -46.76 110 -36.76 110 -36.76"/></g><g id="node3" class="node"><title>b</title><polygon fill="#ff0" stroke="#000" points="138 -.5 138 -36.5 192 -36.5 192 -.5 138 -.5"/><text x="165" y="-14.8" font-family="Times,serif" font-size="14" text-anchor="middle">1</text></g><g id="node4" class="node"><title>c</title><polygon fill="#ff0" stroke="#000" points="193 -.5 193 -36.5 247 -36.5 247 -.5 193 -.5"/><text x="220" y="-14.8" font-family="Times,serif" font-size="14" text-anchor="middle">2</text></g><g id="node5" class="node"><title>d</title><polygon fill="#ff0" stroke="#000" points="248 -.5 248 -36.5 302 -36.5 302 -.5 248 -.5"/><text x="275" y="-14.8" font-family="Times,serif" font-size="14" text-anchor="middle">3</text></g><g id="node6" class="node"><title>e</title><polygon fill="#7fff00" stroke="#000" points="303 -.5 303 -36.5 357 -36.5 357 -.5 303 -.5"/><text x="330" y="-14.8" font-family="Times,serif" font-size="14" text-anchor="middle">4</text></g><g id="node7" class="node"><title>f</title><polygon fill="#fff" stroke="#000" points="358 -.5 358 -36.5 412 -36.5 412 -.5 358 -.5"/><text x="385" y="-14.8" font-family="Times,serif" font-size="14" text-anchor="middle">5</text></g><g id="node8" class="node"><title>g</title><polygon fill="#fff" stroke="#000" points="413 -.5 413 -36.5 467 -36.5 467 -.5 413 -.5"/><text x="440" y="-14.8" font-family="Times,serif" font-size="14" text-anchor="middle">6</text></g><g id="node9" class="node"><title>h</title><polygon fill="#fff" stroke="#000" points="468 -.5 468 -36.5 522 -36.5 522 -.5 468 -.5"/><text x="495" y="-14.8" font-family="Times,serif" font-size="14" text-anchor="middle">7</text></g></g></svg>